<?xml version="1.0" encoding="utf-8"?>
<!-- Generator: Adobe Illustrator 26.4.1, SVG Export Plug-In . SVG Version: 6.00 Build 0)  -->
<svg version="1.1" id="Layer_1" xmlns="http://www.w3.org/2000/svg" xmlns:xlink="http://www.w3.org/1999/xlink" x="0px" y="0px"
	 viewBox="0 0 830 120" style="enable-background:new 0 0 830 120;" xml:space="preserve">
<style type="text/css">
	.st0{fill:#6661AA;}
</style>
<g>
	<g>
		<path class="st0" d="M101.9,44.6c0.1,0,0.2,0,0.3,0c5,0,9.9,0,14.9,0c1.3,0,2.5,0.4,3.5,1.3c1.4,1.2,2,2.8,1.7,4.6
			c-0.3,1.8-1.3,3.1-3,3.9c-0.7,0.3-1.4,0.4-2.1,0.4c-8.5,0-17,0-25.5,0c-2.3,0-4.2-1.4-4.9-3.6c-0.2-0.5-0.2-1-0.2-1.5
			c0-8.5,0-17.1,0-25.6c0-2.2,1.5-4.2,3.6-4.9c3-0.9,5.9,0.9,6.6,3.9c0.1,0.4,0.1,0.8,0.1,1.2c0,3.4,0,6.8,0,10.2c0,0.1,0,0.2,0,0.3
			c0.1-0.1,0.1-0.1,0.2-0.1c2.9-2.9,6.2-5.2,9.8-7c2.7-1.3,5.5-2.3,8.4-2.9c2.6-0.5,5.3-0.8,8-0.7c6.3,0.1,12.1,1.8,17.5,5
			c3.1,1.8,5.9,4.1,8.4,6.9c3.2,3.5,5.6,7.5,7.2,12c0.5,1.5,0.5,2.9-0.2,4.3c-0.8,1.4-2,2.3-3.5,2.6c-2.5,0.5-4.9-0.9-5.8-3.2
			c-0.7-1.9-1.5-3.7-2.6-5.4c-1.4-2.1-3-4-4.9-5.7c-2.8-2.4-5.9-4.1-9.3-5.1c-1.6-0.5-3.3-0.9-5-1c-1.3-0.1-2.6-0.1-3.9-0.1
			c-2.9,0.1-5.8,0.8-8.5,2c-2.5,1.1-4.8,2.5-6.8,4.3c-1.3,1.2-2.5,2.4-3.6,3.9C102,44.5,102,44.5,101.9,44.6z"/>
		<path class="st0" d="M142.9,75.4c-0.1,0-0.2,0-0.3,0c-5,0-10,0-14.9,0c-1.6,0-2.9-0.6-4-1.8c-2.3-2.6-1.2-6.8,1.9-8.1
			c0.6-0.3,1.3-0.4,2-0.4c8.5,0,17,0,25.5,0c2,0,3.5,0.9,4.5,2.6c0.5,0.8,0.7,1.6,0.7,2.5c0,1.4,0,2.9,0,4.3c0,7.1,0,14.1,0,21.2
			c0,2.3-1.1,3.9-3.1,4.8c-1.9,0.8-3.7,0.5-5.3-0.8c-1.3-1.1-1.8-2.5-1.8-4.1c0-3.4,0-6.8,0-10.2c0-0.1,0-0.2,0-0.3
			c-0.4,0.4-0.8,0.8-1.3,1.2c-3.1,2.8-6.5,5.1-10.4,6.7c-2.7,1.1-5.5,1.9-8.4,2.4c-2.5,0.4-5.1,0.5-7.6,0.4
			c-4.5-0.3-8.8-1.3-12.8-3.1c-3.2-1.4-6-3.3-8.7-5.5c-3-2.5-5.4-5.5-7.4-8.8c-1.2-2.1-2.3-4.3-3-6.6c-0.6-1.8-0.1-3.5,1.1-4.9
			c1.1-1.2,2.5-1.8,4.1-1.6c2,0.2,3.5,1.2,4.3,3c0.5,1.1,0.9,2.2,1.4,3.2c1,2.1,2.4,4.1,3.9,5.8c2.7,3,6,5.2,9.8,6.7
			c1.8,0.7,3.7,1.2,5.6,1.5c1.7,0.2,3.4,0.3,5.1,0.2c3-0.2,5.8-0.8,8.5-2c2.5-1.1,4.7-2.5,6.8-4.2c1.3-1.2,2.5-2.4,3.6-3.8
			C142.8,75.5,142.8,75.4,142.9,75.4z"/>
	</g>
	<g>
		<path class="st0" d="M193.3,85.6h-9.9V38.9h21.8c4.9,0,8.7,1.4,11.5,4.3c2.8,2.9,4.2,6.5,4.2,10.7c0,4.2-1.4,7.8-4.2,10.7
			c-2.8,2.9-6.6,4.3-11.5,4.3h-11.9V85.6z M203.8,60.1c2,0,3.7-0.6,5-1.7c1.3-1.1,2-2.6,2-4.5c0-1.9-0.7-3.4-2-4.6
			c-1.3-1.1-3-1.7-5-1.7h-10.5v12.5H203.8z"/>
		<path class="st0" d="M256.4,85.6h-29.8V38.9h10v37.9h19.7V85.6z"/>
		<path class="st0" d="M296.2,85.6h-33V38.9h33v8.8h-23.1v9.8h22.6v8.7h-22.6v10.6h23.1V85.6z"/>
		<path class="st0" d="M346.3,85.6h-11.9l-11.7-17.1l-11.8,17.1h-11.8l16.9-23.9l-15.9-22.8H312l10.7,16l10.6-16h12l-15.9,22.7
			L346.3,85.6z"/>
		<path class="st0" d="M406.6,85.6h-11.5L385.9,69h-7.3v16.6h-9.9V38.9h21.8c4.8,0,8.6,1.4,11.5,4.2c2.8,2.8,4.3,6.4,4.3,10.9
			c0,3.8-1,6.9-3,9.3s-4.4,3.9-7.2,4.6L406.6,85.6z M389.1,60.2c2,0,3.7-0.6,5-1.7c1.3-1.1,2-2.7,2-4.7c0-1.9-0.7-3.4-2-4.5
			c-1.3-1.1-3-1.7-5-1.7h-10.5v12.6H389.1z"/>
		<path class="st0" d="M446.7,85.6h-33V38.9h33v8.8h-23.1v9.8h22.6v8.7h-22.6v10.6h23.1V85.6z"/>
		<path class="st0" d="M471.2,86.4c-8.3,0-14.9-2.5-19.9-7.4l5.5-7.8c4.1,4.2,9,6.4,14.8,6.4c2.6,0,4.6-0.5,6-1.5
			c1.4-1,2.1-2.2,2.1-3.7c0-1.3-0.7-2.3-2-3.1c-1.3-0.8-3-1.4-5-1.8c-2-0.4-4.1-0.9-6.5-1.6c-2.3-0.7-4.5-1.5-6.5-2.3
			c-2-0.9-3.6-2.3-5-4.2c-1.3-1.9-2-4.2-2-7c0-4,1.6-7.4,4.8-10.1c3.2-2.7,7.5-4.1,12.9-4.1c7.4,0,13.5,2.2,18.2,6.5l-5.5,7.4
			c-3.7-3.4-8.2-5.1-13.6-5.1c-2.1,0-3.7,0.4-4.8,1.3c-1.2,0.8-1.8,2-1.8,3.4c0,1.1,0.7,2.1,2,2.8c1.3,0.7,3,1.3,5,1.7
			c2,0.4,4.1,0.9,6.4,1.6c2.3,0.7,4.5,1.5,6.4,2.4c2,0.9,3.6,2.3,5,4.2c1.3,1.9,2,4.2,2,7c0,4.5-1.6,8.1-4.8,10.9
			C481.9,85,477.2,86.4,471.2,86.4z"/>
		<path class="st0" d="M516.4,85.6h-10V47.6h-13.7v-8.8H530v8.8h-13.6V85.6z"/>
		<path class="st0" d="M575.4,85.6h-11.3l-2.9-7.9h-20l-2.9,7.9H527l18-46.7h12.5L575.4,85.6z M558.5,68.9l-7.3-20.1l-7.3,20.1
			H558.5z"/>
		<path class="st0" d="M617.6,85.6h-11.5L597,69h-7.3v16.6h-9.9V38.9h21.8c4.8,0,8.6,1.4,11.5,4.2c2.8,2.8,4.3,6.4,4.3,10.9
			c0,3.8-1,6.9-3,9.3s-4.4,3.9-7.2,4.6L617.6,85.6z M600.2,60.2c2,0,3.7-0.6,5-1.7c1.3-1.1,2-2.7,2-4.7c0-1.9-0.7-3.4-2-4.5
			c-1.3-1.1-3-1.7-5-1.7h-10.5v12.6H600.2z"/>
		<path class="st0" d="M644.8,85.6h-10V47.6h-13.7v-8.8h37.2v8.8h-13.6V85.6z"/>
		<path class="st0" d="M697.8,85.6h-33V38.9h33v8.8h-23.1v9.8h22.6v8.7h-22.6v10.6h23.1V85.6z"/>
		<path class="st0" d="M743.5,85.6H732L722.8,69h-7.3v16.6h-9.9V38.9h21.8c4.8,0,8.6,1.4,11.5,4.2c2.8,2.8,4.3,6.4,4.3,10.9
			c0,3.8-1,6.9-3,9.3s-4.4,3.9-7.2,4.6L743.5,85.6z M726,60.2c2,0,3.7-0.6,5-1.7c1.3-1.1,2-2.7,2-4.7c0-1.9-0.7-3.4-2-4.5
			c-1.3-1.1-3-1.7-5-1.7h-10.5v12.6H726z"/>
	</g>
</g>
</svg>
