<?xml version="1.0" encoding="utf-8"?>
<!-- Generator: Adobe Illustrator 26.4.1, SVG Export Plug-In . SVG Version: 6.00 Build 0)  -->
<svg version="1.1" id="Layer_1" xmlns="http://www.w3.org/2000/svg" xmlns:xlink="http://www.w3.org/1999/xlink" x="0px" y="0px"
	 viewBox="0 0 512 512" style="enable-background:new 0 0 512 512;" xml:space="preserve">
<style type="text/css">
	.st0{fill:#6463A6;}
</style>
<g>
	<path class="st0" d="M131.7,162.7c0.9,0,1.4,0,2,0c30.2,0,60.3,0,90.5,0c8.1,0,15.3,2.4,21.2,7.8c8.3,7.6,11.8,17.1,10,28.2
		c-1.8,11-8,18.8-18.1,23.5c-4,1.8-8.2,2.6-12.6,2.6c-51.6,0-103.3,0-154.9,0c-14.1,0-25.4-8.3-29.8-21.7c-1-2.9-1.5-6.2-1.5-9.2
		c-0.1-51.8-0.1-103.7,0-155.5c0-13.5,8.9-25.7,21.9-29.6c18.1-5.4,36,5.4,39.7,23.9c0.5,2.3,0.5,4.8,0.5,7.1c0,20.6,0,41.2,0,61.9
		c0,0.5,0,1.1,0,1.9c0.5-0.4,0.7-0.6,1-0.8C119,85.1,138.9,71,161.1,60.2c16.3-7.9,33.3-13.7,51.1-17.3c15.9-3.3,32.1-4.8,48.3-4.4
		c38,0.9,73.4,11,106.1,30.2c19.1,11.2,36,25.1,50.8,41.6c19.2,21.4,33.7,45.6,43.4,72.6c3.3,9,3.1,17.8-1.5,26.3
		c-4.6,8.6-11.8,13.8-21.4,15.8c-14.9,3.1-29.9-5.6-35-19.6c-4.1-11.5-9.3-22.5-15.9-32.8c-8.2-13-18.2-24.5-29.9-34.5
		c-16.7-14.3-35.5-24.7-56.5-31c-9.8-3-19.9-5.2-30.2-5.8c-7.8-0.5-15.7-0.9-23.5-0.5c-17.9,0.9-35.1,4.9-51.6,11.9
		c-15.2,6.5-29,15-41.5,25.9c-8.1,7-15.4,14.8-21.9,23.4C132.1,162.1,132,162.3,131.7,162.7z"/>
	<path class="st0" d="M380.3,349.1c-0.9,0-1.5,0-2.1,0c-30.2,0-60.4,0-90.6,0c-9.7,0-17.8-3.6-24.1-10.9
		c-13.7-15.9-7.6-40.9,11.8-48.8c3.9-1.6,7.9-2.3,12.1-2.3c51.6,0,103.2,0,154.7,0c12,0,21.2,5.4,27.3,15.7
		c2.8,4.7,4.1,9.9,4.1,15.4c0,8.7,0,17.5,0,26.2c0,42.7,0.1,85.5,0,128.2c0,13.7-6.4,23.9-19,29.3c-11.5,4.9-22.5,3.1-32.2-4.9
		c-7.7-6.4-10.9-14.9-10.9-24.7c0-20.7,0-41.3,0-62c0-0.6,0-1.2,0-2c-2.7,2.5-5.1,4.9-7.6,7.2c-18.5,17.2-39.5,30.7-62.8,40.6
		c-16.3,6.9-33.2,11.8-50.7,14.6c-15.3,2.5-30.8,3.2-46.3,2.4c-27.1-1.5-53.1-7.9-77.8-19.1c-19.1-8.6-36.6-19.9-52.5-33.6
		c-17.9-15.4-32.8-33.3-44.9-53.6c-7.5-12.7-14-25.9-18.4-40c-3.4-11-0.8-21.1,6.9-29.6c6.7-7.4,15.2-10.8,25.1-9.9
		c12.2,1.1,21,7.3,26.1,18.5c2.9,6.4,5.4,13.1,8.4,19.5c6.2,12.9,14.3,24.6,23.9,35.2c16.5,18.2,36.3,31.7,59.2,40.6
		c10.9,4.3,22.3,7.1,33.9,8.8c10.2,1.5,20.5,2,30.7,1.4c17.9-1,35.2-5,51.7-12c15-6.4,28.8-14.9,41.1-25.6
		c8.1-7,15.4-14.8,21.9-23.3C379.7,349.9,379.9,349.6,380.3,349.1z"/>
</g>
</svg>
